# xmcd
#
# Track frame offsets: 
#        150
#        15957
#        32502
#        57207
#        75093
#        90007
#        105677
#        125318
#        144159
#        157190
#        170087
#
# Disc length: 2514 seconds
#
# Revision: 2
# Processed by: cddbd v1.5.2PL0 Copyright (c) Steve Scherf et al.
# Submitted via: ExactAudioCopy v0.90b4
#
DISCID=7009d00b
DTITLE=Nanci Griffith - Ruby's Torch
DYEAR=2006
DGENRE=Country
TTITLE0=When I Dream
TTITLE1=If These Walls Could Speak
TTITLE2=Ruby's Arms
TTITLE3=Never Be The Sun
TTITLE4=Bluer Than Blue
TTITLE5=Brave Companion Of The Road
TTITLE6=Grapefruit Moon
TTITLE7=Please Call Me, Baby
TTITLE8=Late Night Grande Hotel
TTITLE9=In The Wee Small Hours
TTITLE10=Drops From The Faucet
EXTD=
EXTT0=
EXTT1=
EXTT2=
EXTT3=
EXTT4=
EXTT5=
EXTT6=
EXTT7=
EXTT8=
EXTT9=
EXTT10=
PLAYORDER=
